<mxfile host="app.diagrams.net" modified="2023-05-29T02:27:54.222Z" agent="Mozilla/5.0 (Windows NT 10.0; Win64; x64) AppleWebKit/537.36 (KHTML, like Gecko) Chrome/112.0.0.0 Safari/537.36 OPR/98.0.0.0" etag="ZHk8NunJ-UYAG4puUiMA" version="21.3.4" type="device">
  <diagram name="Página-1" id="_E3mUF0pBjWpJdoyrz4B">
    <mxGraphModel dx="1420" dy="693" grid="1" gridSize="10" guides="1" tooltips="1" connect="1" arrows="1" fold="1" page="1" pageScale="1" pageWidth="827" pageHeight="1169" math="0" shadow="0">
      <root>
        <mxCell id="0" />
        <mxCell id="1" parent="0" />
        <mxCell id="YPmZXdbiqo6XuBKclRzJ-14" value="ITEM" style="rounded=0;whiteSpace=wrap;html=1;" parent="1" vertex="1">
          <mxGeometry x="400" y="480" width="120" height="40" as="geometry" />
        </mxCell>
        <mxCell id="YPmZXdbiqo6XuBKclRzJ-16" value="FORNECEDOR" style="rounded=0;whiteSpace=wrap;html=1;" parent="1" vertex="1">
          <mxGeometry x="400" y="640" width="120" height="40" as="geometry" />
        </mxCell>
        <mxCell id="YPmZXdbiqo6XuBKclRzJ-17" value="FUNCIONÁRIO" style="rounded=0;whiteSpace=wrap;html=1;" parent="1" vertex="1">
          <mxGeometry x="160" y="320" width="120" height="40" as="geometry" />
        </mxCell>
        <mxCell id="YPmZXdbiqo6XuBKclRzJ-18" value="CLIENTE" style="rounded=0;whiteSpace=wrap;html=1;" parent="1" vertex="1">
          <mxGeometry x="400" y="160" width="120" height="40" as="geometry" />
        </mxCell>
        <mxCell id="YPmZXdbiqo6XuBKclRzJ-19" value="ESTOQUE" style="rounded=0;whiteSpace=wrap;html=1;" parent="1" vertex="1">
          <mxGeometry x="640" y="480" width="120" height="40" as="geometry" />
        </mxCell>
        <mxCell id="YPmZXdbiqo6XuBKclRzJ-21" value="CARGOS" style="rounded=0;whiteSpace=wrap;html=1;" parent="1" vertex="1">
          <mxGeometry x="160" y="160" width="120" height="40" as="geometry" />
        </mxCell>
        <mxCell id="YPmZXdbiqo6XuBKclRzJ-33" value="" style="endArrow=none;html=1;rounded=0;entryX=0.5;entryY=1;entryDx=0;entryDy=0;exitX=0.5;exitY=0;exitDx=0;exitDy=0;" parent="1" source="uKkQP2AL_-uah1fNm3WM-15" target="YPmZXdbiqo6XuBKclRzJ-18" edge="1">
          <mxGeometry width="50" height="50" relative="1" as="geometry">
            <mxPoint x="524" y="260" as="sourcePoint" />
            <mxPoint x="544" y="280" as="targetPoint" />
          </mxGeometry>
        </mxCell>
        <mxCell id="YPmZXdbiqo6XuBKclRzJ-36" value="" style="endArrow=none;html=1;rounded=0;entryX=0.5;entryY=0;entryDx=0;entryDy=0;exitX=0.5;exitY=1;exitDx=0;exitDy=0;" parent="1" source="YPmZXdbiqo6XuBKclRzJ-21" target="YPmZXdbiqo6XuBKclRzJ-17" edge="1">
          <mxGeometry width="50" height="50" relative="1" as="geometry">
            <mxPoint x="254" y="270" as="sourcePoint" />
            <mxPoint x="274" y="260" as="targetPoint" />
          </mxGeometry>
        </mxCell>
        <mxCell id="uKkQP2AL_-uah1fNm3WM-15" value="VENDA" style="rounded=0;whiteSpace=wrap;html=1;" vertex="1" parent="1">
          <mxGeometry x="400" y="320" width="120" height="40" as="geometry" />
        </mxCell>
        <mxCell id="uKkQP2AL_-uah1fNm3WM-16" value="COMPRA" style="rounded=0;whiteSpace=wrap;html=1;" vertex="1" parent="1">
          <mxGeometry x="160" y="480" width="120" height="40" as="geometry" />
        </mxCell>
        <mxCell id="uKkQP2AL_-uah1fNm3WM-23" value="" style="endArrow=none;html=1;rounded=0;entryX=1;entryY=0.5;entryDx=0;entryDy=0;exitX=0;exitY=0.5;exitDx=0;exitDy=0;" edge="1" parent="1" source="uKkQP2AL_-uah1fNm3WM-15" target="YPmZXdbiqo6XuBKclRzJ-17">
          <mxGeometry width="50" height="50" relative="1" as="geometry">
            <mxPoint x="474" y="330" as="sourcePoint" />
            <mxPoint x="474" y="210" as="targetPoint" />
          </mxGeometry>
        </mxCell>
        <mxCell id="uKkQP2AL_-uah1fNm3WM-24" value="" style="endArrow=none;html=1;rounded=0;entryX=0.5;entryY=1;entryDx=0;entryDy=0;exitX=0.5;exitY=0;exitDx=0;exitDy=0;" edge="1" parent="1" source="uKkQP2AL_-uah1fNm3WM-16" target="YPmZXdbiqo6XuBKclRzJ-17">
          <mxGeometry width="50" height="50" relative="1" as="geometry">
            <mxPoint x="294" y="430" as="sourcePoint" />
            <mxPoint x="294" y="350" as="targetPoint" />
          </mxGeometry>
        </mxCell>
        <mxCell id="uKkQP2AL_-uah1fNm3WM-27" value="" style="endArrow=none;html=1;rounded=0;exitX=1;exitY=0.5;exitDx=0;exitDy=0;entryX=0;entryY=0.5;entryDx=0;entryDy=0;" edge="1" parent="1" source="YPmZXdbiqo6XuBKclRzJ-14" target="YPmZXdbiqo6XuBKclRzJ-19">
          <mxGeometry width="50" height="50" relative="1" as="geometry">
            <mxPoint x="463.6" y="640" as="sourcePoint" />
            <mxPoint x="534" y="570" as="targetPoint" />
          </mxGeometry>
        </mxCell>
        <mxCell id="uKkQP2AL_-uah1fNm3WM-30" value="" style="endArrow=none;html=1;rounded=0;exitX=0.5;exitY=1;exitDx=0;exitDy=0;entryX=0.5;entryY=0;entryDx=0;entryDy=0;" edge="1" parent="1" source="YPmZXdbiqo6XuBKclRzJ-14" target="YPmZXdbiqo6XuBKclRzJ-16">
          <mxGeometry width="50" height="50" relative="1" as="geometry">
            <mxPoint x="474" y="655" as="sourcePoint" />
            <mxPoint x="474" y="530" as="targetPoint" />
          </mxGeometry>
        </mxCell>
        <mxCell id="uKkQP2AL_-uah1fNm3WM-32" value="" style="endArrow=none;html=1;rounded=0;exitX=0.5;exitY=0;exitDx=0;exitDy=0;" edge="1" parent="1" source="YPmZXdbiqo6XuBKclRzJ-14" target="uKkQP2AL_-uah1fNm3WM-15">
          <mxGeometry width="50" height="50" relative="1" as="geometry">
            <mxPoint x="460" y="480" as="sourcePoint" />
            <mxPoint x="500" y="390" as="targetPoint" />
          </mxGeometry>
        </mxCell>
        <mxCell id="uKkQP2AL_-uah1fNm3WM-33" value="" style="endArrow=none;html=1;rounded=0;entryX=0;entryY=0.5;entryDx=0;entryDy=0;exitX=1;exitY=0.5;exitDx=0;exitDy=0;" edge="1" parent="1" source="uKkQP2AL_-uah1fNm3WM-16" target="YPmZXdbiqo6XuBKclRzJ-14">
          <mxGeometry width="50" height="50" relative="1" as="geometry">
            <mxPoint x="300" y="530" as="sourcePoint" />
            <mxPoint x="300" y="410" as="targetPoint" />
          </mxGeometry>
        </mxCell>
      </root>
    </mxGraphModel>
  </diagram>
</mxfile>
